<svg width="150" height="150" viewBox="0 0 150 150" version="1.1" xmlns="http://www.w3.org/2000/svg" xmlns:xlink="http://www.w3.org/1999/xlink">
<title>Frame 3</title>
<desc>Created using Figma</desc>
<g id="Canvas" transform="translate(705 1767)">
<clipPath id="clip-0" clip-rule="evenodd">
<path d="M -705 -1767L -555 -1767L -555 -1617L -705 -1617L -705 -1767Z" fill="#FFFFFF"/>
</clipPath>
<g id="Frame 3" clip-path="url(#clip-0)">
<g id="C">
<use xlink:href="#path0_fill" transform="translate(-710 -1748)"/>
</g>
<g id="V">
<use xlink:href="#path1_fill" transform="translate(-652 -1721)"/>
</g>
</g>
</g>
<defs>
<path id="path0_fill" d="M 18.0591 50.8784C 18.0591 50.7759 18.0249 50.6221 17.9565 50.417C 17.9224 50.2119 17.8711 50.0068 17.8027 49.8018C 17.7686 49.5625 17.7173 49.3574 17.6489 49.1865C 17.6147 48.9814 17.5977 48.8276 17.5977 48.7251C 17.5293 48.4858 17.4951 48.2979 17.4951 48.1611C 17.4951 48.0244 17.4951 47.8877 17.4951 47.751C 17.4951 47.4775 17.5293 47.2554 17.5977 47.0845C 17.666 46.9136 17.7856 46.6572 17.9565 46.3154L 17.3413 36.0615L 17.5977 33.1904C 17.666 33.0879 17.7344 32.9683 17.8027 32.8315C 17.8711 32.729 17.9224 32.6436 17.9565 32.5752C 17.9907 32.4727 18.0249 32.3872 18.0591 32.3188C 18.3667 31.6011 18.606 30.9175 18.7769 30.2681C 18.9478 29.6187 19.1528 28.9351 19.3921 28.2173C 19.563 27.5337 19.6484 26.8843 19.6484 26.269C 19.6484 25.5171 19.7852 24.9019 20.0586 24.4233C 20.5029 23.3979 20.9985 22.4238 21.5454 21.501C 22.1265 20.5439 22.8271 19.4331 23.6475 18.1685C 23.7158 18.0659 23.7842 17.9634 23.8525 17.8608C 23.9209 17.7241 23.9893 17.6045 24.0576 17.502C 24.3652 17.0576 24.6899 16.562 25.0317 16.0151C 25.4077 15.4683 25.6128 15.1606 25.647 15.0923C 26.0571 14.4771 26.4502 14.0156 26.8262 13.708C 27.2363 13.4004 27.7148 12.9902 28.2617 12.4775C 29.4238 11.5889 30.4492 10.7686 31.3379 10.0166C 32.2266 9.26465 33.2861 8.5127 34.5166 7.76074L 35.7983 7.19678C 36.106 7.09424 36.4478 6.95752 36.8237 6.78662C 37.1997 6.58154 37.5928 6.37646 38.0029 6.17139C 38.4131 5.96631 38.8062 5.77832 39.1821 5.60742C 39.5581 5.43652 39.8999 5.2998 40.2075 5.19727L 45.437 4.47949C 45.5737 4.47949 45.7959 4.42822 46.1035 4.32568C 46.4111 4.22314 46.6333 4.08643 46.77 3.91553C 48.2397 3.88135 49.4189 3.84717 50.3076 3.81299C 51.1963 3.77881 52.0337 3.76172 52.8198 3.76172C 53.8794 3.76172 54.9219 3.77881 55.9473 3.81299C 56.9727 3.84717 57.998 3.88135 59.0234 3.91553C 59.6729 4.08643 60.2026 4.22314 60.6128 4.32568C 61.0229 4.39404 61.3477 4.4624 61.5869 4.53076C 61.8262 4.56494 61.9971 4.58203 62.0996 4.58203C 62.2021 4.58203 62.3047 4.58203 62.4072 4.58203C 62.8174 4.54785 63.1421 4.53076 63.3813 4.53076C 63.6548 4.49658 63.894 4.47949 64.0991 4.47949C 64.3384 4.47949 64.5947 4.47949 64.8682 4.47949C 65.1416 4.47949 65.5005 4.47949 65.9448 4.47949C 66.3208 4.68457 66.731 4.9751 67.1753 5.35107C 67.6196 5.72705 68.0298 5.91504 68.4058 5.91504C 68.5425 5.91504 68.6792 5.86377 68.8159 5.76123C 68.9526 5.65869 69.0552 5.60742 69.1235 5.60742L 72.1484 5.60742C 72.5928 5.53906 73.0029 5.40234 73.3789 5.19727C 73.7891 4.95801 74.1821 4.71875 74.5581 4.47949C 74.9683 4.20605 75.3613 3.98389 75.7373 3.81299C 76.1133 3.60791 76.5405 3.50537 77.019 3.50537C 77.6001 3.50537 78.0957 3.69336 78.5059 4.06934C 78.9502 4.41113 79.1724 4.92383 79.1724 5.60742L 79.1724 14.1182C 79.2065 14.2891 79.2578 14.5625 79.3262 14.9385C 79.3945 15.3145 79.4287 15.5879 79.4287 15.7588C 79.7363 17.3994 80.0952 19.0913 80.5054 20.8345C 80.9155 22.5435 81.1206 24.2183 81.1206 25.8589C 81.0864 26.064 81.001 26.2861 80.8643 26.5254C 80.7275 26.7646 80.5566 26.9868 80.3516 27.1919C 80.1807 27.397 80.0098 27.585 79.8389 27.7559C 79.668 27.8926 79.5312 27.9609 79.4287 27.9609C 79.4287 28.0293 79.3091 28.0635 79.0698 28.0635C 78.3862 28.0635 77.7881 27.9097 77.2754 27.6021C 76.7969 27.2944 76.3867 26.9014 76.0449 26.4229C 75.7031 25.9443 75.4468 25.4316 75.2759 24.8848C 75.105 24.3379 74.9854 23.8252 74.917 23.3467L 74.917 21.6548C 74.8486 21.1763 74.7461 20.8003 74.6094 20.5269C 74.5068 20.2192 74.3701 19.9629 74.1992 19.7578C 74.0283 19.5186 73.8232 19.2793 73.584 19.04C 73.3789 18.8008 73.1396 18.4932 72.8662 18.1172C 72.4902 17.7412 72.2681 17.3311 72.1997 16.8867C 72.1313 16.4082 71.9434 15.9297 71.6357 15.4512C 71.5674 15.3145 71.4136 15.1777 71.1743 15.041C 70.9351 14.9043 70.7812 14.8359 70.7129 14.8359L 67.4316 12.4775C 67.4316 12.4434 67.3462 12.3579 67.1753 12.2212C 67.0386 12.0503 66.8848 11.8794 66.7139 11.7085C 66.543 11.5034 66.3721 11.3154 66.2012 11.1445C 66.0645 10.9736 65.979 10.854 65.9448 10.7856C 65.5688 10.5806 65.3638 10.478 65.3296 10.478C 65.2612 10.5464 65.022 10.5806 64.6118 10.5806C 64.3726 10.5806 64.2529 10.5464 64.2529 10.478C 63.5352 10.3413 62.8345 10.1191 62.1509 9.81152C 61.5015 9.50391 60.9033 9.19629 60.3564 8.88867L 54.1528 8.63232C 53.9136 8.35889 53.6743 8.18799 53.4351 8.11963C 53.1958 8.05127 52.9053 8.01709 52.5635 8.01709C 51.4014 8.01709 50.4102 8.11963 49.5898 8.32471C 48.7695 8.52979 48.0176 8.82031 47.334 9.19629C 47.2998 9.26465 47.2656 9.31592 47.2314 9.3501C 47.1631 9.41846 47.0947 9.45264 47.0264 9.45264C 46.5479 9.82861 46.0181 10.1191 45.437 10.3242C 44.8901 10.5293 44.3262 10.7344 43.7451 10.9395C 43.1641 11.1104 42.583 11.3154 42.002 11.5547C 41.4551 11.7598 40.9424 12.0674 40.4639 12.4775L 38.5156 14.1182C 38.4814 14.1865 38.3105 14.3403 38.0029 14.5796C 37.6953 14.7847 37.5244 14.9556 37.4902 15.0923C 37.3193 15.4683 37.0288 15.8271 36.6187 16.1689C 36.2085 16.4766 35.9351 16.6646 35.7983 16.7329C 35.5249 17.1089 35.3198 17.519 35.1831 17.9634C 35.0806 18.3735 34.9609 18.6128 34.8242 18.6812L 33.645 20.373L 32.2095 23.6543L 31.543 26.6279C 31.5088 26.6963 31.4233 26.8159 31.2866 26.9868C 31.1841 27.1577 31.0474 27.3457 30.8765 27.5508C 30.7397 27.7217 30.5859 27.8755 30.415 28.0122C 30.2783 28.1489 30.1758 28.2173 30.1074 28.2173C 30.1074 28.2515 30.0903 28.3882 30.0562 28.6274C 30.022 28.8667 29.9878 29.1572 29.9536 29.499C 29.9536 29.8066 29.9365 30.1313 29.9023 30.4731C 29.8682 30.7808 29.8511 31.02 29.8511 31.1909L 29.8511 32.5752L 30.1074 37.8047L 30.7227 40.3169L 30.1074 43.1367C 30.1074 44.7773 30.3296 46.418 30.7739 48.0586C 31.2183 49.6992 31.6968 51.2886 32.2095 52.8267C 32.2778 52.8608 32.5854 53.271 33.1323 54.0571L 33.645 55.4927C 33.7476 55.7661 33.9014 56.0396 34.1064 56.313C 34.3115 56.5522 34.5337 56.7915 34.7729 57.0308C 35.0464 57.27 35.3027 57.4922 35.542 57.6973C 35.7812 57.9023 35.9863 58.1074 36.1572 58.3125C 36.3281 58.9277 36.4478 59.355 36.5161 59.5942C 36.5845 59.8335 36.6528 60.0044 36.7212 60.1069C 36.7896 60.1753 36.875 60.2437 36.9775 60.312C 37.0801 60.3462 37.251 60.4829 37.4902 60.7222C 37.7295 60.8247 37.9175 60.9956 38.0542 61.2349C 38.2251 61.4399 38.3789 61.6792 38.5156 61.9526C 38.6523 62.2261 38.7891 62.4995 38.9258 62.7729C 39.0625 63.0464 39.2505 63.2686 39.4897 63.4395C 40.1392 63.542 40.686 63.6104 41.1304 63.6445C 41.6089 63.6445 42.0361 63.8496 42.4121 64.2598C 43.2324 64.9434 44.0015 65.5415 44.7192 66.0542C 45.437 66.5327 46.1548 66.96 46.8726 67.3359C 47.6245 67.6777 48.4106 67.9854 49.231 68.2588C 50.0513 68.498 50.9741 68.7031 51.9995 68.874L 54.6655 69.6431C 55.5542 69.6431 56.272 69.5234 56.8188 69.2842C 57.3999 69.0107 57.9639 68.874 58.5107 68.874C 59.0234 68.874 59.502 69.062 59.9463 69.438C 60.3906 69.7798 60.8862 69.9507 61.4331 69.9507C 61.8774 69.9507 62.2363 69.814 62.5098 69.5405C 62.8174 69.2329 63.1934 69.0107 63.6377 68.874C 63.7061 68.874 63.9111 68.8398 64.2529 68.7715C 64.6289 68.7031 64.8682 68.6519 64.9707 68.6177C 65.1074 68.6177 65.3296 68.5322 65.6372 68.3613C 65.9448 68.1904 66.167 68.0366 66.3037 67.8999C 67.4658 67.729 68.2007 67.5923 68.5083 67.4897C 68.8501 67.353 69.0552 67.2847 69.1235 67.2847C 69.1577 67.2505 69.2432 67.1821 69.3799 67.0796C 69.5166 66.9429 69.6533 66.8062 69.79 66.6694C 69.9609 66.4985 70.1147 66.3447 70.2515 66.208C 70.3882 66.0371 70.4907 65.9175 70.5591 65.8491C 70.6958 65.8491 70.918 65.7637 71.2256 65.5928C 71.5332 65.4219 71.8579 65.2168 72.1997 64.9775C 72.5757 64.7383 72.9346 64.499 73.2764 64.2598C 73.6523 64.0205 73.96 63.8325 74.1992 63.6958C 74.3701 63.5933 74.4897 63.4736 74.5581 63.3369C 74.6265 63.166 74.7461 62.9951 74.917 62.8242C 75.4297 62.1064 75.9424 61.5767 76.4551 61.2349C 76.9678 60.8931 77.5146 60.3633 78.0957 59.6455C 78.2324 59.5088 78.4204 59.3037 78.6597 59.0303C 78.9331 58.7227 79.104 58.4834 79.1724 58.3125C 79.2065 58.2441 79.2749 58.0391 79.3774 57.6973C 79.5142 57.3213 79.6509 57.1162 79.7876 57.082C 80.2319 56.7061 80.6592 56.4497 81.0693 56.313C 81.4795 56.1763 81.9067 56.1079 82.3511 56.1079C 82.5903 56.1079 82.7954 56.2104 82.9663 56.4155C 83.1714 56.6206 83.3252 56.8599 83.4277 57.1333C 83.5645 57.4067 83.667 57.7144 83.7354 58.0562C 83.8037 58.3638 83.8379 58.6201 83.8379 58.8252C 83.8379 59.5088 83.6841 60.124 83.3765 60.6709C 83.0688 61.1836 82.7271 61.6792 82.3511 62.1577C 81.9751 62.6362 81.5991 63.1318 81.2231 63.6445C 80.8813 64.123 80.6421 64.687 80.5054 65.3364C 80.3687 65.439 80.1465 65.627 79.8389 65.9004C 79.5312 66.1396 79.2236 66.4131 78.916 66.7207C 78.6084 67.0283 78.3179 67.3359 78.0444 67.6436C 77.771 67.917 77.6001 68.1221 77.5317 68.2588C 76.7798 69.25 76.0962 69.9507 75.481 70.3608C 74.8657 70.7368 74.2847 71.1299 73.7378 71.54C 73.4985 71.8477 73.3105 72.1724 73.1738 72.5142C 73.0713 72.8218 72.8149 73.061 72.4048 73.2319C 71.9263 73.5054 71.3794 73.7617 70.7642 74.001C 70.1831 74.2061 69.5508 74.394 68.8672 74.5649C 67.7734 75.2485 66.7993 75.71 65.9448 75.9492C 65.0903 76.1885 64.2017 76.4619 63.2788 76.7695L 61.228 77.8975C 59.4165 78 58.1689 78.1367 57.4854 78.3076C 56.8018 78.5127 56.3916 78.6152 56.2549 78.6152C 55.1611 78.5811 54.4092 78.4785 53.999 78.3076C 53.623 78.1709 53.3667 78.1025 53.23 78.1025L 50.0513 79.1279C 49.6753 79.0938 49.2651 79.0596 48.8208 79.0254C 48.4106 78.9912 48.0005 78.9399 47.5903 78.8716C 47.1802 78.8374 46.8042 78.769 46.4624 78.6665C 46.1206 78.5981 45.8643 78.4956 45.6934 78.3589C 44.7705 78.1196 43.8135 77.9487 42.8223 77.8462C 41.8311 77.7437 40.874 77.4702 39.9512 77.0259L 36.1572 75.5391C 36.0889 75.4707 35.8838 75.4023 35.542 75.334C 35.2002 75.2314 34.9609 75.1802 34.8242 75.1802C 33.833 73.8813 33.269 73.2319 33.1323 73.2319L 31.9019 73.2319C 31.6284 73.061 31.3037 72.7363 30.9277 72.2578C 30.5859 71.7451 30.2271 71.1812 29.8511 70.5659C 29.8511 70.1558 29.6118 69.8994 29.1333 69.7969C 28.689 69.6943 28.2959 69.6431 27.9541 69.6431C 27.749 69.5405 27.6123 69.4038 27.5439 69.2329C 27.4756 69.0278 27.4072 68.8228 27.3389 68.6177C 27.3047 68.3784 27.2534 68.1392 27.1851 67.8999C 27.1167 67.6606 26.9971 67.4556 26.8262 67.2847C 26.7578 67.1138 26.5869 66.8745 26.3135 66.5669C 26.04 66.2251 25.8179 65.9858 25.647 65.8491C 25.4077 65.7124 25.2197 65.6099 25.083 65.5415C 24.9463 65.4731 24.8267 65.4219 24.7241 65.3877C 24.6216 65.3193 24.519 65.2339 24.4165 65.1313C 24.314 64.9946 24.1772 64.7896 24.0063 64.5161L 22.7246 62.5679L 21.5967 61.3374C 21.5967 60.1411 21.5112 59.3037 21.3403 58.8252C 21.1694 58.3467 21.0498 58.0903 20.9814 58.0562C 20.9814 57.9194 20.9302 57.6289 20.8276 57.1846C 20.7593 56.7061 20.6909 56.4326 20.6226 56.3643C 19.939 56.0566 19.5117 55.8345 19.3408 55.6978C 19.2041 55.5952 19.1016 55.5269 19.0332 55.4927L 18.0591 50.8784Z"/>
<path id="path1_fill" d="M 34.9268 42.2651L 34.8755 41.9062C 34.397 40.6416 33.9185 39.4966 33.4399 38.4712C 32.9956 37.4458 32.6196 36.2837 32.312 34.9849C 32.2095 34.5747 32.0386 34.2158 31.7993 33.9082C 31.5601 33.5664 31.3208 33.2417 31.0815 32.9341C 30.8423 32.5923 30.6201 32.2676 30.415 31.96C 30.21 31.6182 30.0732 31.2593 30.0049 30.8833C 29.6289 29.1401 29.2188 27.4653 28.7744 25.8589C 28.3643 24.2524 27.8516 22.6289 27.2363 20.9883L 26.0059 18.3735L 25.2881 15.8101C 24.9121 15.1606 24.4336 14.5967 23.8525 14.1182C 23.3057 13.6396 22.7417 13.1953 22.1606 12.7852C 21.5796 12.3408 21.0327 11.9136 20.52 11.5034C 20.0073 11.0933 19.6143 10.6489 19.3408 10.1704C 18.9648 10.1704 18.5376 10.1533 18.0591 10.1191C 17.6147 10.0508 17.1704 9.93115 16.7261 9.76025C 16.3159 9.58936 15.957 9.36719 15.6494 9.09375C 15.376 8.78613 15.2393 8.39307 15.2393 7.91455C 15.2393 7.40186 15.3931 7.00879 15.7007 6.73535C 16.0083 6.46191 16.3672 6.3252 16.7773 6.3252L 19.8022 6.68408C 19.9731 6.68408 20.144 6.59863 20.3149 6.42773C 20.4858 6.25684 20.7251 6.17139 21.0327 6.17139C 21.3062 6.17139 21.5454 6.05176 21.7505 5.8125L 25.2881 5.8125L 31.1328 6.3252C 32.2949 6.3252 33.3545 6.18848 34.3115 5.91504C 35.3027 5.6416 36.3452 5.41943 37.439 5.24854C 38.1226 5.21436 38.7036 5.18018 39.1821 5.146C 39.6948 5.11182 40.1392 5.09473 40.5151 5.09473C 40.9253 5.09473 41.3867 5.06055 41.8994 4.99219C 42.4463 4.88965 43.0273 4.77002 43.6426 4.6333C 43.7451 4.6333 44.0356 4.66748 44.5142 4.73584C 44.9927 4.77002 45.4883 4.85547 46.001 4.99219C 46.5137 5.12891 46.9751 5.33398 47.3853 5.60742C 47.7954 5.84668 48.0005 6.1543 48.0005 6.53027L 47.7441 9.3501C 47.7441 9.55518 47.5903 9.77734 47.2827 10.0166C 47.0093 10.2217 46.6675 10.4268 46.2573 10.6318C 45.8813 10.8369 45.4883 11.0078 45.0781 11.1445C 44.7021 11.2471 44.4287 11.2983 44.2578 11.2983L 42.5659 10.9395C 41.8823 10.9395 41.3184 10.9736 40.874 11.042C 40.4639 11.0762 39.8999 11.1616 39.1821 11.2983C 38.8745 11.4351 38.6011 11.6401 38.3618 11.9136C 38.1567 12.187 38.0542 12.5117 38.0542 12.8877C 38.0542 13.6738 38.208 14.4087 38.5156 15.0923C 38.8232 15.7759 39.0454 16.4937 39.1821 17.2456L 39.4897 21.3984C 39.5581 21.9795 39.6777 22.5605 39.8486 23.1416C 40.0537 23.6885 40.2759 24.2354 40.5151 24.7822C 40.7544 25.3291 40.9937 25.876 41.2329 26.4229C 41.4722 26.9697 41.6602 27.5166 41.7969 28.0635L 41.7969 30.627C 41.7969 30.7637 41.9336 31.0029 42.207 31.3447C 42.5146 31.6865 42.7026 31.9258 42.771 32.0625C 43.147 32.7461 43.4546 33.5322 43.6938 34.4209C 43.9331 35.2754 44.1553 36.1641 44.3604 37.0869C 44.5654 38.0098 44.7705 38.9326 44.9756 39.8555C 45.2148 40.7441 45.4883 41.5474 45.7959 42.2651C 46.1377 43.188 46.582 44.1621 47.1289 45.1875C 47.71 46.2129 48.1201 47.187 48.3594 48.1099L 48.6157 51.0322C 48.8208 51.374 49.0259 51.8696 49.231 52.519C 49.4702 53.1685 49.7095 53.8179 49.9487 54.4673C 50.2222 55.0825 50.4956 55.6294 50.769 56.1079C 51.0767 56.5864 51.4185 56.8257 51.7944 56.8257C 52.3755 56.8257 52.8369 56.6719 53.1787 56.3643C 53.5547 56.0225 53.9307 55.6636 54.3066 55.2876L 54.7168 54.7749C 54.8877 54.3989 54.9731 54.0742 54.9731 53.8008C 54.939 53.4248 54.9219 53.1172 54.9219 52.8779C 54.9219 52.6045 54.9219 52.3994 54.9219 52.2627C 54.9219 52.0234 54.939 51.8867 54.9731 51.8525L 56.665 49.084C 56.8359 48.6396 57.0239 48.1099 57.229 47.4946C 57.4683 46.8794 57.6904 46.2471 57.8955 45.5977C 58.1348 44.9482 58.3569 44.2988 58.562 43.6494C 58.8013 42.9658 59.0063 42.3506 59.1772 41.8037C 59.3823 41.3594 59.5703 40.8296 59.7412 40.2144C 59.9121 39.5649 60.1001 38.9155 60.3052 38.2661C 60.5103 37.6167 60.7495 37.0015 61.0229 36.4204C 61.2964 35.8394 61.6211 35.3608 61.9971 34.9849C 61.8945 34.9165 61.8433 34.6772 61.8433 34.2671L 61.8433 31.8062C 61.8433 31.6353 61.8433 31.4814 61.8433 31.3447C 61.8774 31.208 61.9287 31.0542 61.9971 30.8833C 61.9971 30.8149 62.0142 30.6611 62.0483 30.4219C 62.1167 30.1826 62.1851 29.9263 62.2534 29.6528C 62.356 29.3452 62.4585 29.0547 62.561 28.7812C 62.6636 28.4736 62.749 28.2344 62.8174 28.0635L 63.4326 26.833L 63.4326 24.3208C 63.6035 24.1841 63.8257 23.9961 64.0991 23.7568C 64.3726 23.4834 64.5093 23.2612 64.5093 23.0903C 65.0903 21.6548 65.5688 20.0142 65.9448 18.1685C 66.3208 16.3228 66.5088 14.5283 66.5088 12.7852L 66.5088 11.811C 66.2012 11.3325 65.8594 10.8882 65.4834 10.478C 65.1074 10.0679 64.5605 9.77734 63.8428 9.60645C 63.3301 9.50391 62.6636 9.45264 61.8433 9.45264C 61.2964 9.45264 60.7324 9.43555 60.1514 9.40137C 59.5703 9.33301 59.0405 9.21338 58.562 9.04248C 58.0835 8.8374 57.6904 8.56396 57.3828 8.22217C 57.0752 7.84619 56.9214 7.3335 56.9214 6.68408C 56.9214 6.17139 57.0068 5.76123 57.1777 5.45361C 57.3828 5.11182 57.6562 4.85547 57.998 4.68457C 58.3398 4.47949 58.7329 4.35986 59.1772 4.32568C 59.6216 4.25732 60.083 4.22314 60.5615 4.22314L 69.6362 5.35107C 71.1401 5.35107 72.644 4.99219 74.1479 4.27441C 74.9341 4.06934 75.6689 3.86426 76.3525 3.65918C 77.0361 3.41992 77.6855 3.30029 78.3008 3.30029C 79.1895 3.71045 80.0269 3.98389 80.813 4.12061C 81.6333 4.22314 82.4878 4.27441 83.3765 4.27441L 84.4531 4.27441C 84.6582 4.27441 84.8462 4.27441 85.0171 4.27441C 85.2222 4.27441 85.4443 4.25732 85.6836 4.22314C 85.8545 4.2915 86.0083 4.37695 86.145 4.47949C 86.2817 4.54785 86.4014 4.61621 86.5039 4.68457C 86.6064 4.75293 86.6577 4.82129 86.6577 4.88965C 86.7944 5.16309 86.897 5.45361 86.9653 5.76123C 87.0679 6.06885 87.1191 6.37646 87.1191 6.68408C 87.1191 7.43604 86.9653 8.05127 86.6577 8.52979C 86.521 8.90576 86.2817 9.26465 85.9399 9.60645C 85.5981 9.91406 85.3418 10.1021 85.1709 10.1704L 82.2485 10.1704L 80.9668 9.86279C 80.8301 9.86279 80.625 9.89697 80.3516 9.96533C 80.1123 9.99951 79.8389 10.0508 79.5312 10.1191C 79.2236 10.1875 78.916 10.2559 78.6084 10.3242C 78.335 10.3584 78.1299 10.3926 77.9932 10.4268C 77.207 11.0762 76.5405 11.811 75.9937 12.6313C 75.481 13.4517 75.0366 14.3232 74.6606 15.2461C 74.3188 16.1348 74.0283 17.0576 73.7891 18.0146C 73.584 18.9375 73.4131 19.8604 73.2764 20.7832C 73.2764 21.0225 73.1909 21.2275 73.02 21.3984L 71.4819 23.5518C 71.1401 23.8936 70.9692 24.355 70.9692 24.936C 70.9692 25.1753 70.9692 25.4316 70.9692 25.7051C 70.9692 25.9443 70.9351 26.2007 70.8667 26.4741C 70.7642 26.7134 70.6274 26.9185 70.4565 27.0894C 70.2856 27.2261 70.0977 27.3628 69.8926 27.4995C 69.6875 27.6362 69.4995 27.7729 69.3286 27.9097C 69.1577 28.0464 69.021 28.2173 68.9185 28.4224L 69.021 30.2681C 69.021 31.1567 68.9185 31.9941 68.7134 32.7803C 68.5425 33.5664 68.1323 34.1816 67.4829 34.626L 66.355 39.0864C 65.6372 39.77 64.9707 40.6587 64.3555 41.7524C 63.7744 42.812 63.2617 43.8374 62.8174 44.8286C 62.6465 45.2388 62.5439 45.6489 62.5098 46.0591C 62.4756 46.4351 62.4243 46.811 62.356 47.187C 62.3218 47.563 62.2192 47.9561 62.0483 48.3662C 61.9116 48.7422 61.6382 49.1353 61.228 49.5454C 61.228 50.1948 61.1426 50.8101 60.9717 51.3911C 60.835 51.9722 60.647 52.5532 60.4077 53.1343C 60.2026 53.6812 59.9463 54.2622 59.6387 54.8774C 59.3311 55.4585 59.0234 56.0737 58.7158 56.7231C 58.4082 57.4751 58.1006 58.3125 57.793 59.2354C 57.4854 60.1582 57.1436 60.9785 56.7676 61.6963L 55.9473 62.8242C 55.6738 63.0977 55.5029 63.3711 55.4346 63.6445C 55.4346 63.8496 55.4517 64.0889 55.4858 64.3623C 55.52 64.6357 55.5371 64.9263 55.5371 65.2339C 55.5371 65.6782 55.52 66.02 55.4858 66.2593C 55.4517 66.4985 55.4346 66.6865 55.4346 66.8232C 55.4346 66.9258 55.4004 67.0967 55.332 67.3359C 55.2637 67.541 55.1782 67.7632 55.0757 68.0024C 55.0073 68.2417 54.939 68.4639 54.8706 68.6689C 54.8022 68.8398 54.751 68.9595 54.7168 69.0278L 54.3066 69.8481C 54.2041 70.1558 54.0845 70.6855 53.9478 71.4375C 53.811 72.1553 53.6401 72.9243 53.4351 73.7446C 53.2642 74.5308 53.0762 75.2827 52.8711 76.0005C 52.7002 76.7183 52.5464 77.2139 52.4097 77.4873C 52.0337 78.6836 51.5039 79.5552 50.8203 80.1021C 50.1709 80.6489 49.231 80.9224 48.0005 80.9224C 47.6587 80.9224 47.3511 80.7515 47.0776 80.4097C 46.8042 80.1021 46.5479 79.7261 46.3086 79.2817C 46.1035 78.8374 45.9155 78.3931 45.7446 77.9487C 45.6079 77.5044 45.5054 77.1626 45.437 76.9233C 45.3345 76.6841 45.1807 76.1714 44.9756 75.3853C 44.8047 74.5991 44.6167 73.7446 44.4116 72.8218C 44.2407 71.8989 44.0527 71.0103 43.8477 70.1558C 43.6768 69.3013 43.5229 68.6689 43.3862 68.2588C 43.0103 66.5498 42.5659 64.9434 42.0532 63.4395C 41.5405 61.9014 41.1304 60.312 40.8228 58.6714C 40.7544 58.3296 40.5835 58.0562 40.3101 57.8511C 40.0708 57.646 39.7974 57.458 39.4897 57.2871C 39.2163 57.082 38.9429 56.8599 38.6694 56.6206C 38.4302 56.3813 38.2593 56.0566 38.1567 55.6465L 37.439 51.0322C 37.3706 50.8613 37.2681 50.5708 37.1313 50.1606C 36.9946 49.7163 36.8579 49.272 36.7212 48.8276C 36.5845 48.3833 36.4648 47.9731 36.3623 47.5972C 36.2598 47.2212 36.2085 46.9819 36.2085 46.8794C 36.0376 46.1616 35.7471 45.4951 35.3369 44.8799C 34.9609 44.2646 34.7729 43.5981 34.7729 42.8804L 34.9268 42.2651Z"/>
</defs>
</svg>
